<svg xmlns="http://www.w3.org/2000/svg" viewBox="0 0 789.75 167.95"><defs><style>.cls-1{fill:#ffb61e;}.cls-2{fill:#eee;}.cls-3{fill:#b3b3b3;}.cls-4{fill:#1b1b1b;}</style></defs><title>clearspace</title><g id="Capa_2" data-name="Capa 2"><g id="Capa_1-2" data-name="Capa 1"><path class="cls-1" d="M33.51,33.5h86.92V59.82H92.88v74.51h-32V59.82H33.51Z"/><path class="cls-1" d="M183.52,134.33,172,108.15H160v26.18H128V33.5h46.7q19.71,0,30.45,9.42T215.89,69.6A43.44,43.44,0,0,1,212,88.66a30.94,30.94,0,0,1-11.37,12.88l19,32.79ZM160,82.84H174.7q5.24,0,8.06-3.24c1.88-2.16,2.83-5.15,2.83-9s-1-6.64-2.83-8.7-4.57-3.1-8.06-3.1H160Z"/><path class="cls-1" d="M227.88,33.5h31.95V134.33H227.88Z"/><path class="cls-1" d="M448.56,33.5h28.93V134.33H450.76l-38-51.49v51.49H383.67V33.5H410.4l38.16,51.78Z"/><path class="cls-1" d="M555.18,81.05h27.41v40.36a73,73,0,0,1-20,9.09,88.43,88.43,0,0,1-23.77,3.83,55.05,55.05,0,0,1-26.93-6.54,48,48,0,0,1-18.66-18.05,50.3,50.3,0,0,1-6.75-26A48.27,48.27,0,0,1,512.89,40a59.53,59.53,0,0,1,28-6.47,65.79,65.79,0,0,1,22.66,4.13,58,58,0,0,1,19.08,11l-18,21.9a36.27,36.27,0,0,0-11.37-7.64,31.53,31.53,0,0,0-12.47-2.83,20.44,20.44,0,0,0-11,3.1A21.25,21.25,0,0,0,522,71.65a26.2,26.2,0,0,0-2.76,12.13,26.3,26.3,0,0,0,2.83,12.33,21.57,21.57,0,0,0,7.78,8.54,20.7,20.7,0,0,0,11.16,3.1c3.49,0,9.23-1.35,14.19-3.56Z"/><path class="cls-1" d="M592.92,33.5h32v73.07h40.23v27.76H592.92Z"/><path class="cls-1" d="M673.37,33.5H756.3V58.81h-51V71.18h45.18V96.5H705.33V109h51v25.31H673.37Z"/><path class="cls-1" d="M321.75,33.5,265.34,134.33H378.17Zm0,45.32,19.37,34.62H302.39Z"/><path class="cls-2" d="M1.5,1.5v32H788.14V1.5Z"/><path class="cls-2" d="M756.28,1.4v165h32V1.4Z"/><path class="cls-2" d="M1.5,1.5v165h32V1.5Z"/><path class="cls-2" d="M1.5,134.37v32H788.14v-32Z"/><path class="cls-3" d="M258.83,135.35v29.84H228.88V135.35h29.95m1-1H227.88v31.84h31.95V134.35Z"/><path class="cls-3" d="M32.33,32.05V61.9h-30V32.05h30m1-1h-32V62.9h32V31.05Z"/><path class="cls-3" d="M787.29,108.43v29.84h-30V108.43h30m1-1h-32v31.84h32V107.43Z"/><path class="cls-3" d="M290.7,19.09a.25.25,0,0,1,.18.08l.46.5a3.58,3.58,0,0,1-1.29.95,4.3,4.3,0,0,1-1.81.35,4.39,4.39,0,0,1-1.69-.32,3.94,3.94,0,0,1-1.29-.9,4.09,4.09,0,0,1-.82-1.39,5.13,5.13,0,0,1-.3-1.79,4.9,4.9,0,0,1,.32-1.78,4.07,4.07,0,0,1,.88-1.39,3.89,3.89,0,0,1,1.37-.9,4.51,4.51,0,0,1,1.75-.32,4.11,4.11,0,0,1,1.64.29,4.29,4.29,0,0,1,1.22.8l-.38.53a.32.32,0,0,1-.1.1.21.21,0,0,1-.15,0,.32.32,0,0,1-.17-.06l-.2-.14-.29-.18a2.74,2.74,0,0,0-.38-.18,4.25,4.25,0,0,0-.52-.14,3.37,3.37,0,0,0-.68-.06,3.25,3.25,0,0,0-1.26.24,2.83,2.83,0,0,0-1,.68,3,3,0,0,0-.64,1.06,4.17,4.17,0,0,0-.23,1.41,4.26,4.26,0,0,0,.23,1.44,3,3,0,0,0,.63,1.06,2.78,2.78,0,0,0,.95.67,3,3,0,0,0,1.17.22,4.75,4.75,0,0,0,.69,0,3.39,3.39,0,0,0,.57-.14,2.8,2.8,0,0,0,.94-.6A.3.3,0,0,1,290.7,19.09Z"/><path class="cls-3" d="M293.89,12v8.84h-1.07V12Z"/><path class="cls-3" d="M298.18,14.7a2.7,2.7,0,0,1,1,.18,2.2,2.2,0,0,1,.8.53,2.51,2.51,0,0,1,.53.85,3.42,3.42,0,0,1,.19,1.15.66.66,0,0,1-.06.34c0,.06-.1.08-.2.08h-4.05a3.34,3.34,0,0,0,.16,1,2.12,2.12,0,0,0,.4.71,1.42,1.42,0,0,0,.6.42,1.94,1.94,0,0,0,.78.14A2.4,2.4,0,0,0,299,20a3.46,3.46,0,0,0,.5-.2,3.34,3.34,0,0,0,.35-.2.48.48,0,0,1,.24-.09.24.24,0,0,1,.21.1l.3.39a2,2,0,0,1-.48.42,3.59,3.59,0,0,1-.59.29,4.42,4.42,0,0,1-.65.17,3.74,3.74,0,0,1-.66.05,3.2,3.2,0,0,1-1.17-.21,2.5,2.5,0,0,1-.91-.62,3,3,0,0,1-.61-1,4.23,4.23,0,0,1-.21-1.39,3.54,3.54,0,0,1,.19-1.19,2.86,2.86,0,0,1,.56-1,2.61,2.61,0,0,1,.9-.63A2.84,2.84,0,0,1,298.18,14.7Zm0,.78a1.64,1.64,0,0,0-1.22.45,2.13,2.13,0,0,0-.55,1.24h3.31a2.06,2.06,0,0,0-.11-.68,1.3,1.3,0,0,0-.3-.54,1.27,1.27,0,0,0-.48-.34A1.51,1.51,0,0,0,298.2,15.48Z"/><path class="cls-3" d="M306.52,20.87h-.47a.55.55,0,0,1-.25-.05.25.25,0,0,1-.13-.2l-.12-.57a5.09,5.09,0,0,1-.47.39,2.92,2.92,0,0,1-.48.29,2.45,2.45,0,0,1-.54.18,3.06,3.06,0,0,1-.63.06,2.34,2.34,0,0,1-.66-.1,1.57,1.57,0,0,1-.54-.3,1.43,1.43,0,0,1-.36-.5,1.81,1.81,0,0,1-.14-.72,1.38,1.38,0,0,1,.2-.7,1.76,1.76,0,0,1,.64-.59,4.16,4.16,0,0,1,1.16-.43,7.81,7.81,0,0,1,1.74-.16V17a1.69,1.69,0,0,0-.3-1.08,1.1,1.1,0,0,0-.9-.36,1.83,1.83,0,0,0-.66.1,2.46,2.46,0,0,0-.46.22l-.33.22a.48.48,0,0,1-.28.1.31.31,0,0,1-.19-.06.35.35,0,0,1-.13-.14l-.19-.34a3.56,3.56,0,0,1,1.08-.73,3.37,3.37,0,0,1,1.29-.24,2.34,2.34,0,0,1,.91.17,1.89,1.89,0,0,1,.67.47,1.91,1.91,0,0,1,.4.73,2.75,2.75,0,0,1,.14.93Zm-2.77-.65a2.12,2.12,0,0,0,.52-.06,2.32,2.32,0,0,0,.44-.16,2.41,2.41,0,0,0,.39-.26,2.92,2.92,0,0,0,.37-.34V18.15a7.37,7.37,0,0,0-1.25.09,3.28,3.28,0,0,0-.84.24,1.07,1.07,0,0,0-.47.36.77.77,0,0,0-.15.46,1,1,0,0,0,.08.41.7.7,0,0,0,.21.29.85.85,0,0,0,.31.17A1.6,1.6,0,0,0,303.75,20.22Z"/><path class="cls-3" d="M308.14,20.87V14.79h.61a.3.3,0,0,1,.24.07.33.33,0,0,1,.09.23l.08.94a2.69,2.69,0,0,1,.77-1,1.78,1.78,0,0,1,1.53-.3,1.61,1.61,0,0,1,.38.16l-.14.8a.18.18,0,0,1-.19.15.86.86,0,0,1-.25-.06,1.59,1.59,0,0,0-.49-.06,1.36,1.36,0,0,0-.93.33,2.42,2.42,0,0,0-.63.94v3.87Z"/><path class="cls-3" d="M316.46,15.79a.24.24,0,0,1-.22.14.52.52,0,0,1-.21-.07l-.28-.15-.39-.15a2.08,2.08,0,0,0-.54-.07,1.87,1.87,0,0,0-.49.07,1.43,1.43,0,0,0-.37.19.77.77,0,0,0-.23.28.82.82,0,0,0-.08.35.59.59,0,0,0,.13.39,1.3,1.3,0,0,0,.36.27,4.18,4.18,0,0,0,.51.2l.57.18c.2.07.4.14.58.22a2.14,2.14,0,0,1,.51.3,1.51,1.51,0,0,1,.35.44,1.39,1.39,0,0,1,.14.63,2,2,0,0,1-.15.78,1.71,1.71,0,0,1-.45.62,2.14,2.14,0,0,1-.71.41,3.29,3.29,0,0,1-2.14-.06,3.17,3.17,0,0,1-.88-.53l.26-.41a.43.43,0,0,1,.11-.12.29.29,0,0,1,.17,0,.43.43,0,0,1,.23.08l.29.19a1.83,1.83,0,0,0,.42.18,2,2,0,0,0,1.15,0,1.21,1.21,0,0,0,.39-.22.79.79,0,0,0,.23-.32,1,1,0,0,0,.08-.38.64.64,0,0,0-.14-.42,1.23,1.23,0,0,0-.35-.28,3,3,0,0,0-.51-.21l-.58-.18a6,6,0,0,1-.59-.22,1.83,1.83,0,0,1-.5-.31,1.27,1.27,0,0,1-.36-.46,1.47,1.47,0,0,1-.13-.66,1.55,1.55,0,0,1,.14-.67,1.76,1.76,0,0,1,.42-.56,2.13,2.13,0,0,1,.68-.39,2.62,2.62,0,0,1,.92-.14,3,3,0,0,1,1.07.18,2.6,2.6,0,0,1,.83.52Z"/><path class="cls-3" d="M318.18,22.93V14.79h.64a.28.28,0,0,1,.29.22l.09.72a3.36,3.36,0,0,1,.89-.76,2.28,2.28,0,0,1,1.15-.29,2.24,2.24,0,0,1,.95.2,2,2,0,0,1,.73.6,2.91,2.91,0,0,1,.46,1,5,5,0,0,1,.16,1.34,4.15,4.15,0,0,1-.18,1.25,3,3,0,0,1-.51,1,2.34,2.34,0,0,1-.83.67,2.44,2.44,0,0,1-1.1.24,2.06,2.06,0,0,1-1.67-.71v2.69Zm2.71-7.38a1.69,1.69,0,0,0-.91.24,2.45,2.45,0,0,0-.73.68v2.94a1.65,1.65,0,0,0,.65.55,1.79,1.79,0,0,0,.78.17,1.54,1.54,0,0,0,1.3-.61,2.78,2.78,0,0,0,.46-1.73,4.36,4.36,0,0,0-.11-1,2.05,2.05,0,0,0-.3-.7,1.19,1.19,0,0,0-.49-.4A1.67,1.67,0,0,0,320.89,15.55Z"/><path class="cls-3" d="M329.27,20.87h-.47a.55.55,0,0,1-.25-.05.25.25,0,0,1-.13-.2l-.12-.57a5.09,5.09,0,0,1-.47.39,2.92,2.92,0,0,1-.48.29,2.37,2.37,0,0,1-.53.18,3.16,3.16,0,0,1-.64.06,2.39,2.39,0,0,1-.66-.1,1.57,1.57,0,0,1-.54-.3,1.43,1.43,0,0,1-.36-.5,1.81,1.81,0,0,1-.14-.72,1.38,1.38,0,0,1,.2-.7,1.76,1.76,0,0,1,.64-.59,4.28,4.28,0,0,1,1.16-.43,7.81,7.81,0,0,1,1.74-.16V17a1.69,1.69,0,0,0-.3-1.08,1.1,1.1,0,0,0-.9-.36,1.74,1.74,0,0,0-.65.1,2.28,2.28,0,0,0-.47.22l-.33.22a.48.48,0,0,1-.28.1.31.31,0,0,1-.19-.06A.44.44,0,0,1,325,16l-.19-.34a3.56,3.56,0,0,1,1.08-.73,3.37,3.37,0,0,1,1.29-.24,2.34,2.34,0,0,1,.91.17,1.89,1.89,0,0,1,.67.47,1.91,1.91,0,0,1,.4.73,2.75,2.75,0,0,1,.14.93Zm-2.77-.65a2.12,2.12,0,0,0,.52-.06,2.32,2.32,0,0,0,.44-.16,2,2,0,0,0,.39-.26,2.92,2.92,0,0,0,.37-.34V18.15a7.37,7.37,0,0,0-1.25.09,3.28,3.28,0,0,0-.84.24,1.13,1.13,0,0,0-.47.36.77.77,0,0,0-.15.46,1,1,0,0,0,.08.41.7.7,0,0,0,.21.29.85.85,0,0,0,.31.17A1.6,1.6,0,0,0,326.5,20.22Z"/><path class="cls-3" d="M335,15.87a.31.31,0,0,1-.1.1.2.2,0,0,1-.14,0,.32.32,0,0,1-.19-.07,1.59,1.59,0,0,0-.27-.17,2.42,2.42,0,0,0-.39-.16,1.57,1.57,0,0,0-.57-.08,1.75,1.75,0,0,0-.78.16,1.52,1.52,0,0,0-.58.46,2,2,0,0,0-.34.72,3.6,3.6,0,0,0-.12,1,3.65,3.65,0,0,0,.12,1,2.43,2.43,0,0,0,.36.72,1.55,1.55,0,0,0,.55.44,1.64,1.64,0,0,0,.74.16A1.91,1.91,0,0,0,334,20a2.06,2.06,0,0,0,.42-.2l.28-.21a.32.32,0,0,1,.21-.09.24.24,0,0,1,.21.1l.3.39a2.42,2.42,0,0,1-1,.71,3.56,3.56,0,0,1-1.26.22,2.67,2.67,0,0,1-1.06-.21,2.42,2.42,0,0,1-.85-.61,2.83,2.83,0,0,1-.56-1,3.85,3.85,0,0,1-.21-1.32,4,4,0,0,1,.19-1.26,3,3,0,0,1,.55-1,2.48,2.48,0,0,1,.9-.65,2.92,2.92,0,0,1,1.22-.23,2.85,2.85,0,0,1,1.13.2,2.73,2.73,0,0,1,.87.59Z"/><path class="cls-3" d="M338.9,14.7a2.75,2.75,0,0,1,1,.18,2.2,2.2,0,0,1,.8.53,2.34,2.34,0,0,1,.52.85,3.19,3.19,0,0,1,.19,1.15.68.68,0,0,1-.05.34.23.23,0,0,1-.21.08h-4a3.34,3.34,0,0,0,.16,1,2,2,0,0,0,.39.71,1.56,1.56,0,0,0,.6.42,1.94,1.94,0,0,0,.78.14,2.43,2.43,0,0,0,.7-.09,3.46,3.46,0,0,0,.5-.2l.35-.2a.45.45,0,0,1,.24-.09.21.21,0,0,1,.2.1l.3.39a2.11,2.11,0,0,1-.47.42,3.59,3.59,0,0,1-.59.29,4.77,4.77,0,0,1-.65.17A3.78,3.78,0,0,1,339,21a3.15,3.15,0,0,1-1.16-.21,2.62,2.62,0,0,1-.92-.62,3,3,0,0,1-.6-1,4.23,4.23,0,0,1-.21-1.39,3.54,3.54,0,0,1,.19-1.19,2.86,2.86,0,0,1,.56-1,2.57,2.57,0,0,1,.89-.63A2.87,2.87,0,0,1,338.9,14.7Zm0,.78a1.62,1.62,0,0,0-1.22.45,2.07,2.07,0,0,0-.55,1.24h3.3a2.07,2.07,0,0,0-.1-.68,1.57,1.57,0,0,0-.3-.54,1.27,1.27,0,0,0-.48-.34A1.51,1.51,0,0,0,338.93,15.48Z"/><path class="cls-3" d="M345.12,15.42h5.16v.81h-5.16Zm0,2h5.16v.81h-5.16Z"/><path class="cls-3" d="M355.8,17.76l-2.05-3h1a.41.41,0,0,1,.19,0,.43.43,0,0,1,.11.12l1.49,2.28a1.21,1.21,0,0,1,.15-.33L358,15a.87.87,0,0,1,.12-.14.25.25,0,0,1,.15-.05h1l-2,2.91,2.13,3.17h-1a.28.28,0,0,1-.21-.07.79.79,0,0,1-.12-.15l-1.53-2.38a1.43,1.43,0,0,1-.12.31l-1.42,2.07-.13.15a.25.25,0,0,1-.19.07h-.95Z"/><path class="cls-3" d="M270.42,148.74a2.12,2.12,0,0,1-.26-.58,2.32,2.32,0,0,1-.08-.58,2.11,2.11,0,0,1,.27-1,3,3,0,0,1,.74-.91l.33.2a.12.12,0,0,1,.07.07.15.15,0,0,1,0,.07.2.2,0,0,1-.06.14l-.18.26a2.46,2.46,0,0,0-.17.27,2.83,2.83,0,0,0-.11.31,1.34,1.34,0,0,0,0,.35,1.89,1.89,0,0,0,.05.39,1.83,1.83,0,0,0,.2.43.25.25,0,0,1,0,.14.21.21,0,0,1-.16.21Zm1.82,0a2.47,2.47,0,0,1-.26-.58,2.32,2.32,0,0,1-.08-.58,2.11,2.11,0,0,1,.27-1,3.2,3.2,0,0,1,.75-.91l.33.2a.13.13,0,0,1,.06.07.14.14,0,0,1,0,.07.2.2,0,0,1-.06.14,2.48,2.48,0,0,0-.19.26,2.4,2.4,0,0,0-.16.27,1.66,1.66,0,0,0-.12.31,2,2,0,0,0,0,.35,1.43,1.43,0,0,0,.06.39,1.77,1.77,0,0,0,.19.43.27.27,0,0,1,.05.14.22.22,0,0,1-.17.21Z"/><path class="cls-3" d="M276.52,154.81h-1.16v-8.6h1.16Z"/><path class="cls-3" d="M279.41,145.76a2.08,2.08,0,0,1,.25.58,2.24,2.24,0,0,1,.08.57,2.16,2.16,0,0,1-.27,1.05,3.12,3.12,0,0,1-.74.9l-.33-.2-.06-.06a.24.24,0,0,1,0-.08.2.2,0,0,1,.06-.14,2.35,2.35,0,0,0,.19-.25,2.54,2.54,0,0,0,.16-.28,1.15,1.15,0,0,0,.11-.31,1.27,1.27,0,0,0,.05-.34,1.44,1.44,0,0,0-.06-.4,1.63,1.63,0,0,0-.2-.43.38.38,0,0,1,0-.13.22.22,0,0,1,.16-.21Zm1.82,0a2.47,2.47,0,0,1,.26.58,2.22,2.22,0,0,1,.07.57,2.27,2.27,0,0,1-.26,1.05,3.29,3.29,0,0,1-.74.9l-.33-.2a.14.14,0,0,1-.07-.06.22.22,0,0,1,0-.08.2.2,0,0,1,.06-.14l.18-.25a2.61,2.61,0,0,0,.17-.28,2.83,2.83,0,0,0,.11-.31,1.27,1.27,0,0,0,0-.34,1.44,1.44,0,0,0-.06-.4,1.58,1.58,0,0,0-.19-.43.24.24,0,0,1,0-.13.21.21,0,0,1,.16-.21Z"/><path class="cls-3" d="M284.55,148.73h.84a.38.38,0,0,1,.22.07.33.33,0,0,1,.11.15l1.16,3.92a3.38,3.38,0,0,1,.09.41c0,.14.06.27.08.41,0-.14.07-.27.11-.41s.08-.27.12-.41l1.28-3.94a.33.33,0,0,1,.11-.15.29.29,0,0,1,.19-.06h.46a.32.32,0,0,1,.2.06.33.33,0,0,1,.11.15l1.25,3.94.12.41c0,.14.06.27.1.4,0-.13,0-.27.07-.41s.07-.28.11-.4l1.18-3.92a.29.29,0,0,1,.12-.15.27.27,0,0,1,.2-.07h.8l-2,6.08h-.84c-.11,0-.18-.07-.22-.2l-1.34-4.13a1.38,1.38,0,0,1-.08-.27l-.06-.28-.06.28a2.29,2.29,0,0,1-.08.28l-1.36,4.12a.26.26,0,0,1-.25.2h-.8Z"/><path class="cls-3" d="M296,146.82a.73.73,0,0,1-.06.3.81.81,0,0,1-.17.24.78.78,0,0,1-.24.16.72.72,0,0,1-.29.06.73.73,0,0,1-.3-.06.74.74,0,0,1-.4-.4.73.73,0,0,1-.06-.3.82.82,0,0,1,.22-.54.78.78,0,0,1,.24-.16.73.73,0,0,1,.3-.06.72.72,0,0,1,.29.06.78.78,0,0,1,.24.16.74.74,0,0,1,.17.25A.72.72,0,0,1,296,146.82Zm-.24,1.91v6.08h-1.06v-6.08Z"/><path class="cls-3" d="M301.89,154.81a.27.27,0,0,1-.29-.22l-.1-.74a3.19,3.19,0,0,1-.89.76,2.28,2.28,0,0,1-1.15.28,2.13,2.13,0,0,1-.95-.2,1.94,1.94,0,0,1-.72-.59,2.65,2.65,0,0,1-.46-1,4.9,4.9,0,0,1-.17-1.34,4.24,4.24,0,0,1,.18-1.25,3.16,3.16,0,0,1,.52-1,2.34,2.34,0,0,1,.83-.67,2.44,2.44,0,0,1,1.1-.24,2.35,2.35,0,0,1,1,.18,2.27,2.27,0,0,1,.7.54V146h1.07v8.84Zm-2.07-.78a1.72,1.72,0,0,0,.91-.24,2.7,2.7,0,0,0,.72-.68v-2.94a1.63,1.63,0,0,0-.64-.55,1.81,1.81,0,0,0-.78-.16,1.55,1.55,0,0,0-1.31.6,2.89,2.89,0,0,0-.45,1.73,4.29,4.29,0,0,0,.1,1,2.14,2.14,0,0,0,.3.7,1.1,1.1,0,0,0,.49.39A1.53,1.53,0,0,0,299.82,154Z"/><path class="cls-3" d="M306.16,154.91a1.51,1.51,0,0,1-1.11-.4,1.61,1.61,0,0,1-.39-1.16v-3.72h-.73a.23.23,0,0,1-.16-.06.21.21,0,0,1-.07-.18V149l1-.13.24-1.88a.22.22,0,0,1,.08-.14.25.25,0,0,1,.17-.06h.54v2.09h1.74v.78h-1.74v3.64a.78.78,0,0,0,.19.58.65.65,0,0,0,.48.18.85.85,0,0,0,.29,0l.21-.1.15-.1a.25.25,0,0,1,.11,0,.18.18,0,0,1,.15.11l.32.5a2,2,0,0,1-.67.41A2.22,2.22,0,0,1,306.16,154.91Z"/><path class="cls-3" d="M308.79,154.81V146h1.07v3.58a3.14,3.14,0,0,1,.86-.66,2.29,2.29,0,0,1,1.1-.25,2.14,2.14,0,0,1,.87.16,1.69,1.69,0,0,1,.64.47,2.13,2.13,0,0,1,.39.73,3.44,3.44,0,0,1,.13.94v3.87h-1.07v-3.87a1.63,1.63,0,0,0-.31-1.07,1.21,1.21,0,0,0-1-.38,1.7,1.7,0,0,0-.88.23,2.6,2.6,0,0,0-.76.62v4.47Z"/><path class="cls-3" d="M317.8,149.36H323v.81H317.8Zm0,2H323v.81H317.8Z"/><path class="cls-3" d="M328.48,151.7l-2.05-3h1a.45.45,0,0,1,.19,0,.65.65,0,0,1,.11.12l1.49,2.29a1.14,1.14,0,0,1,.15-.34l1.31-1.92a.87.87,0,0,1,.12-.14.25.25,0,0,1,.15-.05h1l-2,2.91,2.13,3.17h-1a.28.28,0,0,1-.21-.07.57.57,0,0,1-.12-.15l-1.53-2.38a1.43,1.43,0,0,1-.12.31l-1.42,2.07a.93.93,0,0,1-.13.15.25.25,0,0,1-.19.07h-.95Z"/><path class="cls-4" d="M789.75,168H0V0H789.75ZM3,165H786.75V3H3Z"/></g></g></svg>