<svg xmlns="http://www.w3.org/2000/svg" viewBox="0 0 747.05 126.56"><defs><style>.cls-1{fill:#ffb61e;}.cls-2,.cls-3{fill:none;stroke:#e71d73;stroke-miterlimit:10;stroke-width:0.5px;}.cls-3{stroke-linecap:square;}</style></defs><title>guides</title><g id="Capa_2" data-name="Capa 2"><g id="Guides"><path class="cls-1" d="M15.48,12h86.93V37.53H74.61V113l-31.82,0V37.53H15.48Z"/><path class="cls-1" d="M163.7,113l-9.8-26.1H141.66V113l-31.76,0-.06-101h46.72c13.14,0,23.32,3.26,30.49,9.54s10.74,15.18,10.74,26.69a43.43,43.43,0,0,1-3.92,19A30.94,30.94,0,0,1,182.5,80.18L197.79,113Zm-22-51.51h15c3.49,0,6.17-1.11,8-3.27s2.83-5.15,2.83-9-1-6.64-2.83-8.7-4.47-3-8-3l-15,0Z"/><path class="cls-1" d="M209.43,12l31.87,0V113H209.48Z"/><path class="cls-1" d="M430.48,12h29.17V113H430.48L394.65,61.47,394.9,113H365.48V12h29.17l35.83,49.49Z"/><path class="cls-1" d="M537.11,61.52h27.41v38.54a72.71,72.71,0,0,1-20,9.09A88.42,88.42,0,0,1,520.72,113a55,55,0,0,1-26.93-6.54,48,48,0,0,1-18.67-18,50.36,50.36,0,0,1-6.75-26,48.77,48.77,0,0,1,26.45-44,59.53,59.53,0,0,1,28-6.47,65.79,65.79,0,0,1,22.66,4.13,59,59,0,0,1,19.08,11.62l-18,22a37.73,37.73,0,0,0-11.37-8.2,31.53,31.53,0,0,0-12.47-2.83,20.44,20.44,0,0,0-11,3.1,21.21,21.21,0,0,0-7.71,8.48,26.12,26.12,0,0,0-2.75,12.12A28.58,28.58,0,0,0,504,75.28a21.6,21.6,0,0,0,7.78,8.55,20.7,20.7,0,0,0,11.16,3.1c3.49,0,9.23-1.36,14.19-3.56Z"/><path class="cls-1" d="M575.48,12H607.3V86.87H647V113H575.48Z"/><path class="cls-1" d="M655.48,12h82.63V37.53H687.3V49.76h45V75.11h-45V86.87h50.81V113H655.48Z"/><path class="cls-1" d="M303.62,12.1,247.21,112.93H360Zm0,45.32L323,92H284.26Z"/><line class="cls-2" x1="0.29" y1="92.04" x2="746.8" y2="92.04"/><line class="cls-2" x1="0.29" y1="86.87" x2="746.8" y2="86.87"/><line class="cls-2" x1="0.29" y1="75.11" x2="746.8" y2="75.11"/><line class="cls-2" x1="0.29" y1="49.76" x2="746.8" y2="49.76"/><line class="cls-2" x1="0.29" y1="57.59" x2="746.8" y2="57.59"/><line class="cls-2" x1="0.29" y1="61.47" x2="746.8" y2="61.47"/><line class="cls-2" x1="0.29" y1="37.53" x2="746.8" y2="37.53"/><line class="cls-2" x1="0.29" y1="11.98" x2="746.8" y2="11.98"/><line class="cls-2" x1="0.29" y1="112.98" x2="746.8" y2="112.98"/><polyline class="cls-3" points="0.25 126.04 15.46 126.05 42.77 126.06 74.59 126.07 102.38 126.08 109.79 126.08 141.61 126.09 167.37 126.1 197.77 126.11 209.46 126.11 241.28 126.13 265.19 126.13 342 126.16 365.46 126.17 394.63 126.18 430.46 126.19 459.63 126.2 468.19 126.2 536.96 126.22 564.46 126.23 575.46 126.24 607.28 126.25 646.97 126.26 655.46 126.27 687.28 126.28 732.31 126.29 738.09 126.29 746.76 126.3"/><polyline class="cls-3" points="0.27 0.25 271.58 0.25 296.99 0.25 310.25 0.25 335.65 0.25 746.78 0.25"/><line class="cls-2" x1="42.79" y1="126.17" x2="42.79" y2="0.3"/><line class="cls-2" x1="74.61" y1="126.17" x2="74.61" y2="0.3"/><line class="cls-2" x1="109.81" y1="126.17" x2="109.81" y2="0.3"/><line class="cls-2" x1="102.41" y1="126.17" x2="102.41" y2="0.3"/><line class="cls-2" x1="15.48" y1="126.17" x2="15.48" y2="0.3"/><line class="cls-3" x1="0.27" y1="125.93" x2="0.27" y2="0.25"/><line class="cls-2" x1="141.63" y1="126.17" x2="141.63" y2="0.3"/><line class="cls-2" x1="209.48" y1="126.17" x2="209.48" y2="0.3"/><line class="cls-2" x1="241.3" y1="126.17" x2="241.3" y2="0.3"/><line class="cls-2" x1="655.48" y1="126.17" x2="655.48" y2="0.3"/><line class="cls-2" x1="646.99" y1="126.17" x2="646.99" y2="0.3"/><line class="cls-2" x1="687.3" y1="126.17" x2="687.3" y2="0.3"/><line class="cls-2" x1="738.11" y1="126.17" x2="738.11" y2="0.3"/><line class="cls-3" x1="746.76" y1="126.3" x2="746.8" y2="0.38"/><line class="cls-2" x1="732.33" y1="126.17" x2="732.33" y2="0.3"/><line class="cls-2" x1="575.48" y1="126.17" x2="575.48" y2="0.3"/><line class="cls-2" x1="607.3" y1="126.17" x2="607.3" y2="0.3"/><line class="cls-2" x1="365.48" y1="126.17" x2="365.48" y2="0.3"/><line class="cls-2" x1="394.65" y1="126.17" x2="394.65" y2="0.3"/><line class="cls-2" x1="167.39" y1="126.56" x2="167.39" y2="0.69"/><line class="cls-2" x1="197.79" y1="126.56" x2="197.79" y2="0.69"/><line class="cls-2" x1="430.48" y1="126.17" x2="430.48" y2="0.3"/><line class="cls-2" x1="459.65" y1="126.17" x2="459.65" y2="0.3"/><line class="cls-2" x1="468.21" y1="126.17" x2="468.21" y2="0.3"/><line class="cls-2" x1="536.98" y1="126.17" x2="536.98" y2="0.3"/><line class="cls-2" x1="564.48" y1="126.17" x2="564.48" y2="0.3"/><polyline class="cls-2" points="310.25 0.25 303.69 11.98 303.62 12.1 290.91 34.81 289.39 37.53 282.55 49.76 278.17 57.59 276 61.47 268.37 75.11 261.79 86.87 258.9 92.04 247.18 112.98 241.3 123.5"/><polyline class="cls-2" points="335.65 0.25 329.09 11.98 316.32 34.81 314.8 37.53 307.96 49.76 303.62 57.52 303.58 57.59 301.4 61.47 293.77 75.11 287.19 86.87 284.3 92.04 272.59 112.98 265.21 126.17"/><polyline class="cls-2" points="296.99 0.25 303.55 11.98 303.62 12.1 316.32 34.81 317.84 37.53 324.68 49.76 329.07 57.59 331.24 61.47 338.87 75.11 345.45 86.87 348.34 92.04 360.05 112.98 365.48 122.68"/><polyline class="cls-2" points="271.58 0.25 278.14 11.98 290.91 34.81 292.43 37.53 299.27 49.76 303.62 57.52 303.65 57.59 305.83 61.47 313.46 75.11 320.04 86.87 322.93 92.04 334.64 112.98 342.02 126.17"/></g></g></svg>