<svg xmlns="http://www.w3.org/2000/svg" viewBox="0 0 179.53 167.57"><defs><style>.cls-1{fill:#eee;}.cls-2{fill:#b3b3b3;}.cls-3{fill:#ffb61e;}.cls-4{fill:#1b1b1b;}</style></defs><title>icon-clearspace</title><g id="Capa_2" data-name="Capa 2"><g id="Capa_1-2" data-name="Capa 1"><path class="cls-1" d="M1.43,1.51V165.89h32V1.51Z"/><path class="cls-1" d="M146,1.51V165.89h32V1.51Z"/><path class="cls-1" d="M1.43,133.93v32H177.94v-32Z"/><path class="cls-1" d="M1.43,1.51v32H177.94v-32Z"/><path class="cls-2" d="M104.64,135v29.85h-30V135h30m1-1h-32v31.85h32V134Z"/><path class="cls-2" d="M56,19.11a.26.26,0,0,1,.18.07l.45.5a3.69,3.69,0,0,1-1.28,1,4.5,4.5,0,0,1-1.81.34,4.35,4.35,0,0,1-1.69-.32,3.94,3.94,0,0,1-1.29-.9,4.12,4.12,0,0,1-.83-1.39,5.36,5.36,0,0,1-.29-1.78,4.91,4.91,0,0,1,.31-1.79,4.09,4.09,0,0,1,.89-1.39,3.85,3.85,0,0,1,1.36-.9,4.75,4.75,0,0,1,1.76-.32,4.24,4.24,0,0,1,1.63.29,4,4,0,0,1,1.22.8l-.37.53a.32.32,0,0,1-.1.1.25.25,0,0,1-.16,0,.29.29,0,0,1-.16-.06l-.21-.14-.28-.18-.38-.18a4.25,4.25,0,0,0-.52-.14,4.5,4.5,0,0,0-.68-.05,3.21,3.21,0,0,0-1.26.23,3,3,0,0,0-1,.68,3.08,3.08,0,0,0-.64,1.07,3.94,3.94,0,0,0-.23,1.41A4,4,0,0,0,50.81,18a3.06,3.06,0,0,0,.63,1.07,2.59,2.59,0,0,0,.94.66,3.1,3.1,0,0,0,1.18.23,4.86,4.86,0,0,0,.69-.05,3.06,3.06,0,0,0,.56-.14,2.48,2.48,0,0,0,.49-.24,4.58,4.58,0,0,0,.45-.35A.32.32,0,0,1,56,19.11Z"/><path class="cls-2" d="M59.13,12v8.84H58.06V12Z"/><path class="cls-2" d="M63.42,14.71a2.75,2.75,0,0,1,1,.18,2.28,2.28,0,0,1,.8.53,2.34,2.34,0,0,1,.52.85,3.21,3.21,0,0,1,.19,1.16.77.77,0,0,1,0,.33.23.23,0,0,1-.21.09h-4a3.33,3.33,0,0,0,.16,1,2,2,0,0,0,.39.71,1.56,1.56,0,0,0,.6.42,1.94,1.94,0,0,0,.78.15,2.29,2.29,0,0,0,.69-.1,3.19,3.19,0,0,0,.51-.2c.14-.07.25-.14.35-.2a.45.45,0,0,1,.24-.09.21.21,0,0,1,.2.1l.3.39a2.11,2.11,0,0,1-.47.42,3.59,3.59,0,0,1-.59.29,4.77,4.77,0,0,1-.65.17,3.88,3.88,0,0,1-.67.06,3.15,3.15,0,0,1-1.16-.22,2.62,2.62,0,0,1-.92-.62,2.79,2.79,0,0,1-.6-1,4.22,4.22,0,0,1-.22-1.39,3.58,3.58,0,0,1,.2-1.19,2.72,2.72,0,0,1,.56-1,2.39,2.39,0,0,1,.89-.64A3,3,0,0,1,63.42,14.71Zm0,.78a1.62,1.62,0,0,0-1.22.45,2.07,2.07,0,0,0-.55,1.24H65a2.11,2.11,0,0,0-.1-.68,1.53,1.53,0,0,0-.3-.53,1.2,1.2,0,0,0-.48-.35A1.67,1.67,0,0,0,63.45,15.49Z"/><path class="cls-2" d="M71.77,20.88h-.48a.49.49,0,0,1-.25-.05.27.27,0,0,1-.12-.2l-.12-.56c-.16.14-.32.27-.47.38a2.36,2.36,0,0,1-.48.29,2.45,2.45,0,0,1-.54.18,3.06,3.06,0,0,1-.63.06,2.41,2.41,0,0,1-.67-.1,1.62,1.62,0,0,1-.53-.3,1.59,1.59,0,0,1-.37-.5,1.78,1.78,0,0,1-.13-.72,1.41,1.41,0,0,1,.2-.7,1.68,1.68,0,0,1,.64-.59A4.22,4.22,0,0,1,69,17.65a7.91,7.91,0,0,1,1.75-.17V17a1.69,1.69,0,0,0-.3-1.08,1.13,1.13,0,0,0-.9-.36,1.83,1.83,0,0,0-.66.1,2.19,2.19,0,0,0-.46.22l-.34.22a.44.44,0,0,1-.28.1.35.35,0,0,1-.31-.2l-.2-.34a3.56,3.56,0,0,1,1.09-.72,3.37,3.37,0,0,1,1.29-.24,2.38,2.38,0,0,1,.91.16,2,2,0,0,1,.66.47,1.93,1.93,0,0,1,.41.73,3,3,0,0,1,.14.93ZM69,20.23a2,2,0,0,0,.51-.06A2.09,2.09,0,0,0,70,20a2.48,2.48,0,0,0,.4-.26,3.81,3.81,0,0,0,.37-.34V18.16a7.58,7.58,0,0,0-1.26.09,3.51,3.51,0,0,0-.84.25,1.28,1.28,0,0,0-.47.35.76.76,0,0,0-.14.46,1.09,1.09,0,0,0,.07.42,1,1,0,0,0,.21.28.9.9,0,0,0,.32.17A1.6,1.6,0,0,0,69,20.23Z"/><path class="cls-2" d="M73.39,20.88V14.8H74a.34.34,0,0,1,.24.07.46.46,0,0,1,.09.23l.07,1a2.86,2.86,0,0,1,.77-1,1.71,1.71,0,0,1,1.08-.35,2.16,2.16,0,0,1,.46.05,1.53,1.53,0,0,1,.37.16l-.13.8a.18.18,0,0,1-.19.15.9.9,0,0,1-.26-.06,1.56,1.56,0,0,0-.48-.05,1.36,1.36,0,0,0-.94.32,2.37,2.37,0,0,0-.62.94v3.87Z"/><path class="cls-2" d="M81.7,15.81a.24.24,0,0,1-.22.13.35.35,0,0,1-.2-.07L81,15.72a2.49,2.49,0,0,0-.39-.14,1.81,1.81,0,0,0-.54-.07,1.49,1.49,0,0,0-.49.07,1.06,1.06,0,0,0-.37.18A.86.86,0,0,0,79,16a.69.69,0,0,0-.08.35.59.59,0,0,0,.13.39,1.3,1.3,0,0,0,.36.27,4,4,0,0,0,.5.2l.58.18.58.22a1.9,1.9,0,0,1,.5.3,1.31,1.31,0,0,1,.5,1.07,2,2,0,0,1-.15.78,1.71,1.71,0,0,1-.45.62,2.09,2.09,0,0,1-.72.41,2.93,2.93,0,0,1-1,.15,3,3,0,0,1-1.15-.21,2.83,2.83,0,0,1-.88-.53l.25-.41a.34.34,0,0,1,.12-.12.29.29,0,0,1,.17,0,.46.46,0,0,1,.23.08l.29.19a2.26,2.26,0,0,0,.41.19,2.1,2.1,0,0,0,.61.08,1.82,1.82,0,0,0,.55-.08,1.24,1.24,0,0,0,.39-.22.9.9,0,0,0,.23-.32,1,1,0,0,0,.07-.38.64.64,0,0,0-.13-.42,1.15,1.15,0,0,0-.36-.28,3.26,3.26,0,0,0-.5-.21c-.2-.05-.39-.11-.59-.18a4.07,4.07,0,0,1-.58-.22,1.88,1.88,0,0,1-.51-.31,1.37,1.37,0,0,1-.35-.46,1.46,1.46,0,0,1-.14-.66A1.59,1.59,0,0,1,78,15.8a1.5,1.5,0,0,1,.42-.56,2.19,2.19,0,0,1,.67-.39,2.91,2.91,0,0,1,.92-.14,2.85,2.85,0,0,1,1.08.19,2.39,2.39,0,0,1,.82.52Z"/><path class="cls-2" d="M83.43,22.94V14.8h.64a.27.27,0,0,1,.28.23l.09.72a3.45,3.45,0,0,1,.9-.77,2.25,2.25,0,0,1,1.15-.28,2.13,2.13,0,0,1,1,.2,2,2,0,0,1,.73.59,3.07,3.07,0,0,1,.46,1,5.27,5.27,0,0,1,.16,1.33,4.15,4.15,0,0,1-.18,1.25,3,3,0,0,1-.52,1,2.39,2.39,0,0,1-.82.66,2.5,2.5,0,0,1-1.1.25,2.36,2.36,0,0,1-1-.19,2.1,2.1,0,0,1-.7-.53v2.69Zm2.71-7.38a1.73,1.73,0,0,0-.92.24,2.7,2.7,0,0,0-.72.68v2.94a1.75,1.75,0,0,0,.64.56,2,2,0,0,0,.79.16,1.52,1.52,0,0,0,1.3-.61,2.85,2.85,0,0,0,.45-1.73,4.4,4.4,0,0,0-.1-1,2,2,0,0,0-.3-.69,1.16,1.16,0,0,0-.49-.4A1.51,1.51,0,0,0,86.14,15.56Z"/><path class="cls-2" d="M94.52,20.88h-.47a.5.5,0,0,1-.26-.05.27.27,0,0,1-.12-.2l-.12-.56c-.16.14-.32.27-.47.38a2.36,2.36,0,0,1-.48.29,2.45,2.45,0,0,1-.54.18,3.06,3.06,0,0,1-.63.06,2.28,2.28,0,0,1-.66-.1,1.57,1.57,0,0,1-.54-.3,1.43,1.43,0,0,1-.36-.5,1.78,1.78,0,0,1-.14-.72,1.41,1.41,0,0,1,.2-.7,1.68,1.68,0,0,1,.64-.59,4.22,4.22,0,0,1,1.15-.42,7.91,7.91,0,0,1,1.75-.17V17a1.69,1.69,0,0,0-.3-1.08,1.12,1.12,0,0,0-.9-.36,1.83,1.83,0,0,0-.66.1,2.19,2.19,0,0,0-.46.22l-.34.22a.43.43,0,0,1-.27.1.29.29,0,0,1-.19-.06.29.29,0,0,1-.13-.14l-.2-.34a3.56,3.56,0,0,1,1.09-.72,3.37,3.37,0,0,1,1.29-.24,2.38,2.38,0,0,1,.91.16,2,2,0,0,1,.66.47,1.93,1.93,0,0,1,.41.73,3,3,0,0,1,.14.93Zm-2.77-.65a2,2,0,0,0,.51-.06A1.91,1.91,0,0,0,92.7,20a2.48,2.48,0,0,0,.4-.26,2.92,2.92,0,0,0,.37-.34V18.16a7.37,7.37,0,0,0-1.25.09,3.25,3.25,0,0,0-.84.25,1.24,1.24,0,0,0-.48.35.83.83,0,0,0-.14.46.93.93,0,0,0,.08.42.74.74,0,0,0,.21.28.78.78,0,0,0,.31.17A1.6,1.6,0,0,0,91.75,20.23Z"/><path class="cls-2" d="M100.29,15.88l-.1.11a.26.26,0,0,1-.14,0,.32.32,0,0,1-.19-.07l-.27-.17a2.42,2.42,0,0,0-.39-.16,1.91,1.91,0,0,0-.57-.08,1.8,1.8,0,0,0-.79.16,1.51,1.51,0,0,0-.57.46,2.16,2.16,0,0,0-.35.73,3.48,3.48,0,0,0-.12.95,3.58,3.58,0,0,0,.13,1,1.87,1.87,0,0,0,.36.72,1.38,1.38,0,0,0,.55.44,1.6,1.6,0,0,0,.73.16,2,2,0,0,0,.65-.09l.42-.21.27-.21a.35.35,0,0,1,.22-.09.21.21,0,0,1,.2.1l.3.39a2.29,2.29,0,0,1-1,.71,3.47,3.47,0,0,1-1.25.23,2.67,2.67,0,0,1-1.06-.21,2.46,2.46,0,0,1-.85-.61,3,3,0,0,1-.57-1,4.18,4.18,0,0,1-.2-1.33,3.86,3.86,0,0,1,.19-1.25,2.77,2.77,0,0,1,.55-1,2.53,2.53,0,0,1,.89-.65,3.17,3.17,0,0,1,1.23-.23,2.88,2.88,0,0,1,1.13.21,2.76,2.76,0,0,1,.87.58Z"/><path class="cls-2" d="M104.15,14.71a2.79,2.79,0,0,1,1,.18,2.28,2.28,0,0,1,.8.53,2.49,2.49,0,0,1,.52.85,3.21,3.21,0,0,1,.19,1.16.77.77,0,0,1,0,.33.23.23,0,0,1-.21.09h-4a3.69,3.69,0,0,0,.15,1,2.12,2.12,0,0,0,.4.71,1.56,1.56,0,0,0,.6.42,1.94,1.94,0,0,0,.78.15A2.29,2.29,0,0,0,105,20a3.05,3.05,0,0,0,.5-.2,3.34,3.34,0,0,0,.35-.2.51.51,0,0,1,.25-.09.22.22,0,0,1,.2.1l.3.39a2.11,2.11,0,0,1-.47.42,4,4,0,0,1-.59.29,4.77,4.77,0,0,1-.65.17,3.88,3.88,0,0,1-.67.06,3.11,3.11,0,0,1-1.16-.22,2.54,2.54,0,0,1-.92-.62,2.79,2.79,0,0,1-.6-1,4,4,0,0,1-.22-1.39,3.58,3.58,0,0,1,.2-1.19,2.57,2.57,0,0,1,.56-1,2.39,2.39,0,0,1,.89-.64A3,3,0,0,1,104.15,14.71Zm0,.78a1.61,1.61,0,0,0-1.21.45,2.14,2.14,0,0,0-.56,1.24h3.31a2.11,2.11,0,0,0-.1-.68,1.53,1.53,0,0,0-.3-.53,1.23,1.23,0,0,0-.49-.35A1.64,1.64,0,0,0,104.17,15.49Z"/><path class="cls-2" d="M110.37,15.43h5.15v.81h-5.15Zm0,2h5.15v.81h-5.15Z"/><path class="cls-2" d="M121,17.77l-2-3h1a.34.34,0,0,1,.2,0,.25.25,0,0,1,.1.12l1.49,2.28a1.5,1.5,0,0,1,.16-.34L123.28,15a.87.87,0,0,1,.12-.14.25.25,0,0,1,.15,0h1l-2,2.91,2.13,3.17h-1a.28.28,0,0,1-.21-.07.44.44,0,0,1-.12-.15l-1.53-2.38a1.07,1.07,0,0,1-.13.31l-1.41,2.07a1,1,0,0,1-.13.15.25.25,0,0,1-.19.07h-1Z"/><path class="cls-3" d="M89.66,33.1,33.25,133.93H146.08Zm0,45.32L109,113H70.3Z"/><path class="cls-4" d="M179.53,167.57H0V0H179.53ZM3,164.57H176.53V3H3Z"/></g></g></svg>